
<svg xmlns="http://www.w3.org/2000/svg" width="72" height="32" fill="none" viewBox="0 0 72 32" aria-hidden="true"><path fill="#000" d="m6.46 14.903 3.086 3.42c2.265-1.173 4.356-2.9 6.164-4.982 1.275 1.824 3.02 3.42 4.838 4.527l3.998-3.973c-2.315-1.369-4.384-3.289-5.594-5.57.292-.619.56-.958.796-1.608h5.04l.937-4.555H10.423L9.46 6.717h4.785c-1.48 3.615-4.079 6.201-7.788 8.19l.003-.004Z"></path><path fill="#000" d="M9.512 18.516 6.21 14.86l.175-.094c3.761-2.016 6.191-4.527 7.626-7.897H9.269L10.296 2h15.616l-.034.184-.962 4.685h-5.059c-.137.358-.286.626-.442.906-.093.168-.19.342-.289.544 1.123 2.076 3.074 4.005 5.501 5.44l.174.102-4.228 4.2L20.47 18a16.644 16.644 0 0 1-4.77-4.409c-1.851 2.104-3.895 3.74-6.08 4.87l-.105.056h-.003Zm-2.804-3.57 2.875 3.184c2.16-1.136 4.182-2.782 6.011-4.891l.131-.15.115.165c1.204 1.724 2.866 3.289 4.69 4.418l3.767-3.746c-2.42-1.468-4.365-3.422-5.482-5.526l-.038-.068.035-.072a9.74 9.74 0 0 1 .333-.634c.165-.296.317-.576.46-.962l.037-.103h5.026l.874-4.247H10.548l-.9 4.247h4.826l-.087.215c-1.431 3.494-3.873 6.092-7.682 8.17h.003Z"></path><path fill="#000" d="M24.027 11.913H27.2l-1.447 6.973h5.617l3.484-16.73h-5.631l-1.23 5.958h-3.189l-.777 3.8Z"></path><path fill="#000" d="M31.497 19.041h-5.933l1.447-6.972h-3.174l.84-4.114h3.19L29.097 2h5.95L31.5 19.041h-.003Zm-5.55-.31h5.298l3.417-16.42H29.35l-1.229 5.955h-3.189l-.716 3.492h3.174l-1.447 6.972h.003Z"></path><path fill="#000" d="M5.193 29.844h23.865l2.29-10.843H7.483l-2.29 10.843Zm6.882-6.381h12.73l-.399 1.889H11.674l.398-1.89h.003Z"></path><path fill="#000" d="M29.185 30H5l2.358-11.155h24.186L29.185 30Zm-23.802-.311h23.55l2.225-10.532H7.611L5.383 29.689Zm19.148-4.182H11.484l.464-2.2h13.05l-.464 2.2h-.003Zm-12.667-.311h12.418l.333-1.578H12.2l-.333 1.578h-.003ZM52.9 14.362h-2.317l1.307-6.254h-4.948l-1.306 6.254h-2.66l1.306-6.254H39.46l-1.303 6.254h-2.337l-.902 4.328h17.082l.902-4.328Z"></path><path fill="#000" d="M52.126 18.845h-17.4l.968-4.642h2.337l1.304-6.25h5.14l-1.307 6.25h2.343l1.307-6.25h5.265l-1.307 6.25h2.318l-.968 4.642Zm-17.017-.31h16.765l.837-4.02h-2.318L51.7 8.262h-4.63l-1.307 6.251h-2.978l1.307-6.25h-4.505l-1.304 6.25h-2.337l-.837 4.02ZM55.443 2.159H38.37l-.949 4.558h17.076l.946-4.558Z"></path><path fill="#000" d="M54.625 6.873H37.232l1.014-4.87h17.39l-1.011 4.87Zm-17.01-.312h16.758l.88-4.247H38.498l-.884 4.247ZM51.177 20.995l-4.885-1.53c-2.337 3.973-7.452 5.513-12.763 6.002l1.845 4.365c3.637-.423 7.7-2.085 10.959-4.558 2.56 2.215 6.692 4.07 10.485 4.461l3.1-4.492c-3.825-.392-7.36-.76-9.733-2.779.357-.457.687-.946.992-1.465v-.004Z"></path><path fill="#000" d="m35.274 30-1.972-4.667.211-.019c6.425-.591 10.679-2.585 12.645-5.927l.063-.106 5.19 1.624-.1.168c-.28.48-.588.937-.912 1.363 2.346 1.914 5.84 2.271 9.534 2.648l.261.028-3.301 4.785-.09-.009c-3.603-.37-7.795-2.14-10.477-4.415-3.201 2.402-7.28 4.088-10.937 4.515l-.115.012Zm-1.521-4.396 1.717 4.06c3.61-.445 7.627-2.128 10.77-4.515l.099-.078.096.084c2.61 2.256 6.74 4.024 10.308 4.416l2.897-4.2c-3.706-.38-7.19-.776-9.555-2.789l-.115-.096.093-.118c.314-.402.61-.831.88-1.28l-4.58-1.434c-2.025 3.333-6.263 5.333-12.607 5.953l-.003-.003ZM58.95 2.162l-3.433 16.512h5.567l3.435-16.512h-5.57Z"></path><path fill="#000" d="M61.212 18.83h-5.887l3.497-16.824h5.887L61.212 18.83Zm-5.505-.311h5.25l3.37-16.202h-5.25L55.711 18.52h-.004Z"></path><path fill="#5CF636" d="M68 27a3 3 0 1 1-6 0 3 3 0 0 1 6 0Z"></path></svg>
